<svg width="15" height="15" viewBox="0 0 15 15" fill="none" xmlns="http://www.w3.org/2000/svg">
<path d="M7.5 0C3.34375 0 0 3.34375 0 7.5C0 11.6563 3.34375 15 7.5 15C11.6562 15 15 11.6562 15 7.5C15 3.34375 11.6562 0 7.5 0ZM5.5625 3.96875C6.4375 3.96875 7.03125 4.6875 7.03125 5.53125C7.03125 6.375 6.40625 7.09375 5.5625 7.09375C4.6875 7.09375 4.09375 6.375 4.09375 5.53125C4.09375 4.6875 4.6875 3.96875 5.5625 3.96875ZM5.33745 10.9687C4.9245 10.9687 4.68635 10.4998 4.92996 10.1664L9.19255 4.33195C9.28758 4.20189 9.43897 4.125 9.60005 4.125C10.013 4.125 10.2512 4.59393 10.0075 4.92737L5.74495 10.7618C5.64992 10.8919 5.49853 10.9687 5.33745 10.9687ZM9.4375 11.0312C8.5625 11.0312 7.96875 10.3125 7.96875 9.46875C7.96875 8.625 8.59375 7.90625 9.4375 7.90625C10.3125 7.90625 10.9063 8.625 10.9063 9.46875C10.9063 10.3125 10.3125 11.0312 9.4375 11.0312Z" fill="black"/>
</svg>
